# xmcd
#
# Track frame offsets:
#	150
#	16336
#	32976
#	53398
#	68952
#	87148
#	105349
#	121600
#	138035
#	158443
#	173997
#	192131
#
# Disc length: 2804 seconds
#
# Revision: 1
# Processed by: cddbd v1.5.1PL2 Copyright (c) Steve Scherf et al.
# Submitted via: audiograbber 1.83.01
#
DISCID=840af20c
DTITLE=Cyrus, Billy Ray - Cb20214
DYEAR=1900
DGENRE=Country
TTITLE0=Achey Breaky Heart (Vocal)
TTITLE1=Wher'm I Gonna Live (Vocal)
TTITLE2=It's All The Same To Me (Vocal)
TTITLE3=Busy Man (Vocal)
TTITLE4=Could've Been Me (Vocal)
TTITLE5=You Won't Be Lonely Now (Vocal)
TTITLE6=Achey Breaky Heart 
TTITLE7=Wher'm I Gonna Live 
TTITLE8=It's All The Same To Me 
TTITLE9=Busy Man 
TTITLE10=Could've Been Me 
TTITLE11=You Won't Be Lonely Now 
EXTD=
EXTT0=
EXTT1=
EXTT2=
EXTT3=
EXTT4=
EXTT5=
EXTT6=
EXTT7=
EXTT8=
EXTT9=
EXTT10=
EXTT11=
PLAYORDER=
